<svg xmlns="http://www.w3.org/2000/svg" xmlns:xlink="http://www.w3.org/1999/xlink" width="40" zoomAndPan="magnify" viewBox="0 0 30 30.000001" height="40" preserveAspectRatio="xMidYMid meet" version="1.0"><path fill="#000000" d="M 15.136719 27.851562 C 14.960938 27.851562 14.808594 27.714844 14.792969 27.535156 C 14.617188 25.589844 15.542969 23.730469 15.582031 23.652344 L 16.175781 22.234375 C 16.25 22.058594 16.449219 21.972656 16.625 22.046875 C 16.800781 22.121094 16.886719 22.324219 16.8125 22.5 C 16.148438 24.089844 15.320312 25.695312 15.480469 27.472656 C 15.496094 27.664062 15.355469 27.832031 15.167969 27.847656 C 15.15625 27.851562 15.144531 27.851562 15.136719 27.851562 " fill-opacity="1" fill-rule="nonzero"/><path fill="#000000" d="M 16.230469 27.851562 C 16.222656 27.851562 16.214844 27.851562 16.207031 27.851562 C 16.019531 27.835938 15.875 27.671875 15.886719 27.484375 C 15.886719 27.472656 15.894531 27.183594 15.722656 27.003906 C 15.617188 26.890625 15.445312 26.832031 15.210938 26.832031 C 15.023438 26.832031 14.867188 26.675781 14.867188 26.484375 C 14.867188 26.296875 15.023438 26.140625 15.210938 26.140625 C 15.644531 26.140625 15.988281 26.273438 16.230469 26.535156 C 16.605469 26.933594 16.578125 27.46875 16.574219 27.527344 C 16.5625 27.710938 16.410156 27.851562 16.230469 27.851562 " fill-opacity="1" fill-rule="nonzero"/><path fill="#000000" d="M 14.195312 27.847656 C 14.011719 27.847656 13.863281 27.710938 13.847656 27.527344 C 13.84375 27.46875 13.820312 26.933594 14.195312 26.535156 C 14.4375 26.273438 14.78125 26.140625 15.210938 26.140625 C 15.402344 26.140625 15.558594 26.296875 15.558594 26.484375 C 15.558594 26.675781 15.402344 26.832031 15.210938 26.832031 C 14.980469 26.832031 14.808594 26.890625 14.703125 27.003906 C 14.527344 27.1875 14.539062 27.480469 14.539062 27.484375 C 14.546875 27.671875 14.402344 27.835938 14.214844 27.847656 L 14.195312 27.847656 " fill-opacity="1" fill-rule="nonzero"/><path fill="#000000" d="M 12.148438 27.851562 C 11.96875 27.851562 11.820312 27.714844 11.804688 27.535156 C 11.628906 25.589844 12.554688 23.730469 12.59375 23.652344 C 12.679688 23.480469 12.890625 23.414062 13.058594 23.5 C 13.226562 23.585938 13.296875 23.792969 13.210938 23.960938 C 13.203125 23.980469 12.332031 25.726562 12.492188 27.472656 C 12.507812 27.664062 12.367188 27.832031 12.179688 27.847656 C 12.167969 27.851562 12.15625 27.851562 12.148438 27.851562 " fill-opacity="1" fill-rule="nonzero"/><path fill="#000000" d="M 13.242188 27.851562 C 13.234375 27.851562 13.226562 27.851562 13.21875 27.851562 C 13.027344 27.835938 12.886719 27.671875 12.898438 27.484375 C 12.898438 27.472656 12.90625 27.183594 12.734375 27.003906 C 12.625 26.890625 12.453125 26.832031 12.222656 26.832031 C 12.03125 26.832031 11.878906 26.675781 11.878906 26.484375 C 11.878906 26.296875 12.03125 26.140625 12.222656 26.140625 C 12.65625 26.140625 13 26.273438 13.242188 26.535156 C 13.617188 26.933594 13.589844 27.46875 13.585938 27.527344 C 13.574219 27.710938 13.421875 27.851562 13.242188 27.851562 " fill-opacity="1" fill-rule="nonzero"/><path fill="#000000" d="M 11.203125 27.847656 C 11.023438 27.847656 10.875 27.710938 10.859375 27.527344 C 10.855469 27.46875 10.832031 26.933594 11.203125 26.535156 C 11.449219 26.273438 11.792969 26.140625 12.222656 26.140625 C 12.414062 26.140625 12.570312 26.296875 12.570312 26.484375 C 12.570312 26.675781 12.414062 26.832031 12.222656 26.832031 C 11.992188 26.832031 11.820312 26.890625 11.714844 27.003906 C 11.539062 27.1875 11.550781 27.480469 11.550781 27.484375 C 11.558594 27.671875 11.414062 27.835938 11.226562 27.847656 L 11.203125 27.847656 " fill-opacity="1" fill-rule="nonzero"/><path fill="#feaa35" d="M 26.742188 3.988281 L 22.523438 5.445312 L 23.40625 8.707031 L 27.394531 7.824219 L 24.773438 6.636719 L 26.742188 3.988281 " fill-opacity="1" fill-rule="nonzero"/><path fill="#837eb6" d="M 18.378906 2.335938 C 26.320312 2.125 25.609375 16.265625 21.367188 20.84375 C 17.179688 25.363281 5.671875 26.164062 2.601562 16.078125 C 2.601562 16.078125 10.417969 13.980469 11.199219 12.621094 C 11.984375 11.265625 11.585938 2.519531 18.378906 2.335938 " fill-opacity="1" fill-rule="nonzero"/><path fill="#000000" d="M 19.640625 8.03125 C 18.347656 8.03125 17.804688 6.804688 17.699219 6.128906 C 17.667969 5.9375 17.796875 5.761719 17.984375 5.730469 C 18.175781 5.703125 18.351562 5.832031 18.378906 6.019531 C 18.390625 6.074219 18.621094 7.425781 19.75 7.335938 C 19.980469 7.320312 20.140625 7.238281 20.25 7.085938 C 20.550781 6.664062 20.417969 5.8125 20.34375 5.515625 C 20.292969 5.332031 20.402344 5.144531 20.589844 5.097656 C 20.773438 5.046875 20.960938 5.15625 21.011719 5.34375 C 21.046875 5.480469 21.351562 6.726562 20.8125 7.484375 C 20.585938 7.804688 20.234375 7.992188 19.804688 8.027344 C 19.746094 8.03125 19.691406 8.03125 19.640625 8.03125 " fill-opacity="1" fill-rule="nonzero"/><path fill="#837eb6" d="M 16.480469 13.410156 C 16.269531 10.984375 5.597656 4.757812 3.585938 7.332031 C 2.328125 8.941406 5.316406 11.519531 8.003906 13.035156 C 6.535156 13.011719 5.257812 13.367188 5.589844 14.511719 C 6.082031 16.199219 7.535156 16.972656 8.886719 17.160156 C 8.199219 17.730469 7.804688 18.425781 8.410156 19 C 10.007812 20.527344 17.035156 19.675781 16.480469 13.410156 " fill-opacity="1" fill-rule="nonzero"/><path fill="#000000" d="M 24.296875 8.511719 C 24.980469 12.847656 23.714844 18.308594 21.367188 20.84375 C 19.566406 22.785156 16.417969 24.042969 13.164062 24.042969 C 8.847656 24.042969 4.355469 21.828125 2.601562 16.078125 C 2.601562 16.078125 3.5 15.835938 4.714844 15.464844 C 4.71875 15.46875 4.71875 15.472656 4.71875 15.476562 C 5.238281 16.699219 6.316406 17.6875 7.648438 17.917969 C 7.816406 17.945312 7.984375 17.960938 8.152344 17.964844 C 8.148438 17.972656 8.148438 17.976562 8.144531 17.980469 C 8.03125 18.242188 7.9375 18.535156 7.953125 18.878906 C 7.957031 19.222656 8.164062 19.585938 8.402344 19.769531 C 8.515625 19.890625 8.648438 19.945312 8.773438 20.03125 C 8.902344 20.09375 9.03125 20.148438 9.164062 20.199219 C 9.292969 20.238281 9.425781 20.28125 9.558594 20.3125 C 9.6875 20.335938 9.820312 20.363281 9.953125 20.382812 L 10.347656 20.425781 L 10.738281 20.4375 C 11 20.433594 11.261719 20.425781 11.519531 20.390625 C 11.777344 20.367188 12.03125 20.308594 12.285156 20.261719 C 12.535156 20.191406 12.785156 20.132812 13.027344 20.039062 C 13.273438 19.960938 13.503906 19.84375 13.738281 19.738281 C 13.964844 19.609375 14.203125 19.488281 14.398438 19.335938 C 14.601562 19.199219 14.816406 19.03125 14.996094 18.855469 C 15.738281 18.144531 16.234375 17.222656 16.503906 16.257812 C 16.167969 17.203125 15.613281 18.070312 14.859375 18.699219 C 14.664062 18.859375 14.476562 18.992188 14.257812 19.121094 C 14.042969 19.261719 13.820312 19.347656 13.605469 19.453125 C 12.679688 19.789062 11.753906 19.988281 10.761719 19.917969 C 10.355469 19.886719 9.953125 19.820312 9.570312 19.6875 C 9.363281 19.617188 9.167969 19.515625 8.988281 19.386719 C 8.898438 19.328125 8.824219 19.246094 8.761719 19.15625 C 8.585938 18.890625 8.71875 18.566406 8.851562 18.3125 C 8.949219 18.121094 9.078125 17.929688 9.222656 17.746094 C 9.285156 17.664062 9.316406 17.5625 9.304688 17.453125 C 9.285156 17.230469 9.082031 17.066406 8.859375 17.085938 L 8.828125 17.089844 C 7.84375 17.214844 6.804688 16.699219 6.226562 15.914062 C 6.074219 15.707031 5.960938 15.476562 5.863281 15.242188 C 5.625 14.65625 5.359375 13.761719 6.054688 13.371094 C 6.589844 13.074219 7.269531 13.035156 7.871094 13.035156 C 7.914062 13.035156 7.960938 13.035156 8.003906 13.035156 C 5.316406 11.519531 2.328125 8.941406 3.585938 7.332031 C 3.917969 6.902344 4.492188 6.71875 5.214844 6.71875 C 6.980469 6.71875 9.648438 7.820312 11.941406 9.1875 C 12.578125 6.210938 13.953125 2.457031 18.378906 2.335938 C 18.4375 2.335938 18.496094 2.335938 18.554688 2.335938 C 20.765625 2.335938 22.285156 3.472656 23.234375 5.199219 L 26.742188 3.988281 L 24.773438 6.636719 L 27.394531 7.824219 Z M 27.871094 6.777344 L 26.550781 6.175781 L 27.648438 4.703125 C 27.804688 4.503906 27.898438 4.257812 27.898438 3.988281 C 27.898438 3.363281 27.402344 2.855469 26.78125 2.835938 C 26.769531 2.835938 26.757812 2.835938 26.742188 2.835938 C 26.707031 2.835938 26.667969 2.835938 26.628906 2.839844 C 26.527344 2.851562 26.433594 2.875 26.34375 2.90625 L 23.71875 3.8125 C 22.480469 2.085938 20.710938 1.183594 18.554688 1.183594 C 18.484375 1.183594 18.414062 1.183594 18.347656 1.183594 C 13.609375 1.3125 11.886719 5.015625 11.183594 7.449219 C 9.601562 6.632812 7.167969 5.566406 5.214844 5.566406 C 3.800781 5.566406 3.054688 6.140625 2.679688 6.621094 C 2.207031 7.226562 2.039062 7.957031 2.191406 8.734375 C 2.480469 10.183594 3.875 11.554688 5.195312 12.5625 C 5.03125 12.683594 4.894531 12.824219 4.777344 12.976562 C 4.480469 13.375 4.351562 13.851562 4.394531 14.359375 C 3.203125 14.722656 2.316406 14.960938 2.304688 14.964844 C 2.003906 15.046875 1.746094 15.246094 1.597656 15.519531 C 1.445312 15.792969 1.410156 16.113281 1.5 16.414062 C 3.175781 21.910156 7.535156 25.191406 13.164062 25.191406 C 16.707031 25.191406 20.175781 23.828125 22.210938 21.625 C 24.566406 19.082031 25.957031 13.894531 25.566406 9.410156 L 27.644531 8.949219 C 28.128906 8.84375 28.492188 8.4375 28.542969 7.945312 C 28.59375 7.453125 28.324219 6.980469 27.871094 6.777344 " fill-opacity="1" fill-rule="nonzero"/></svg>